<svg version="1.1" id="Layer_1" xmlns="http://www.w3.org/2000/svg" xmlns:xlink="http://www.w3.org/1999/xlink" x="0px" y="0px"
	 width="100%" viewBox="0 0 121 119" enable-background="new 0 0 121 119" xml:space="preserve">
<path fill="#000000" opacity="1.000000" stroke="none" 
	d="
M122.000000,26.999985 
	C122.000000,58.333317 122.000000,89.166649 122.000000,119.999985 
	C81.666679,119.999985 41.333359,119.999985 1.000028,119.999992 
	C1.000018,80.333351 1.000018,40.666702 1.000009,1.000038 
	C41.333309,1.000026 81.666618,1.000026 121.999969,1.000013 
	C122.000000,9.499993 122.000000,17.999987 122.000000,26.999985 
M96.494156,114.989090 
	C96.494156,114.989090 96.961372,114.844925 97.736717,114.969276 
	C107.345428,113.252022 112.824013,107.311295 115.650185,97.610603 
	C115.714699,96.395882 115.779213,95.181168 115.979996,93.042160 
	C115.979996,71.176193 115.979996,49.310223 115.979996,27.444256 
	C115.684990,27.414295 115.389992,27.384336 115.094986,27.354376 
	C114.777473,27.881445 114.459953,28.408514 113.926216,29.543587 
	C113.596687,30.312435 113.267166,31.081284 112.299347,32.180595 
	C110.589455,35.339535 108.882362,38.499989 107.169250,41.657177 
	C94.094788,65.752831 81.019157,89.847847 67.203880,114.318329 
	C68.037323,114.877975 68.857185,115.896858 69.706436,115.921959 
	C74.826385,116.073341 79.956062,116.104294 85.076469,115.960777 
	C88.731224,115.858330 92.376534,115.419243 96.494156,114.989090 
M94.561699,3.098515 
	C71.896942,3.065795 49.232185,3.023831 26.567451,3.035970 
	C25.708885,3.036430 24.850603,3.560544 23.544622,3.980538 
	C23.544622,3.980538 23.111555,4.160372 22.323423,3.997347 
	C19.761139,4.925586 17.125246,5.691430 14.650630,6.813087 
	C7.746520,9.942479 4.734103,15.691138 4.003132,23.479868 
	C3.952177,23.647831 3.901222,23.815796 3.104994,24.427969 
	C3.069134,47.453911 3.024009,70.479866 3.034301,93.505783 
	C3.034678,94.348877 3.578027,95.191719 3.976096,96.437416 
	C3.976096,96.437416 4.156289,96.813370 3.993491,97.599907 
	C4.675704,99.564545 5.046739,101.715492 6.092662,103.462357 
	C11.306288,112.170013 18.819466,116.187508 29.199474,115.103531 
	C34.860138,114.512390 35.868954,113.792435 33.904900,108.629585 
	C31.091740,101.234673 28.027229,93.935066 25.236593,86.531982 
	C21.409941,76.380524 17.684870,66.189751 14.026906,55.976208 
	C12.414099,51.473022 14.812412,44.534290 18.565220,42.154285 
	C25.218838,37.934620 29.888409,37.735661 34.614540,42.285328 
	C36.881969,44.468102 38.696407,47.423317 39.891918,50.363762 
	C44.307446,61.224072 48.379074,72.224205 52.579987,83.171776 
	C53.190601,83.538963 53.801212,83.906151 54.411823,84.273338 
	C54.676128,83.348633 54.787407,82.342773 55.228203,81.511681 
	C60.128620,72.272247 65.014351,63.023899 70.036583,53.850529 
	C74.820435,45.112568 79.914192,36.541759 84.585930,27.745697 
	C88.546272,20.289076 92.098564,12.615734 95.889618,4.482519 
	C95.595749,4.268661 95.301880,4.054804 94.561699,3.098515 
z"/>
<path fill="#EA2B94" opacity="1.000000" stroke="none" 
	d="
M4.168620,22.979979 
	C4.734103,15.691138 7.746520,9.942479 14.650630,6.813087 
	C17.125246,5.691430 19.761139,4.925586 23.068289,4.272729 
	C25.783878,4.698384 27.754351,4.975559 29.725367,4.979487 
	C51.760670,5.023402 73.796059,5.025172 95.831421,5.038294 
	C92.098564,12.615734 88.546272,20.289076 84.585930,27.745697 
	C79.914192,36.541759 74.820435,45.112568 70.036583,53.850529 
	C65.014351,63.023899 60.128620,72.272247 55.228203,81.511681 
	C54.787407,82.342773 54.676128,83.348633 54.411823,84.273338 
	C53.801212,83.906151 53.190601,83.538963 52.579987,83.171776 
	C48.379074,72.224205 44.307446,61.224072 39.891918,50.363762 
	C38.696407,47.423317 36.881969,44.468102 34.614540,42.285328 
	C29.888409,37.735661 25.218838,37.934620 18.565220,42.154285 
	C14.812412,44.534290 12.414099,51.473022 14.026906,55.976208 
	C17.684870,66.189751 21.409941,76.380524 25.236593,86.531982 
	C28.027229,93.935066 31.091740,101.234673 33.904900,108.629585 
	C35.868954,113.792435 34.860138,114.512390 29.199474,115.103531 
	C18.819466,116.187508 11.306288,112.170013 6.092662,103.462357 
	C5.046739,101.715492 4.675704,99.564545 4.272844,96.866333 
	C4.697943,95.152489 4.969760,94.172379 4.970914,93.191948 
	C4.996762,71.238449 5.008468,49.284878 4.959061,27.331461 
	C4.955796,25.880381 4.443923,24.430447 4.168620,22.979979 
z"/>
<path fill="#81368B" opacity="1.000000" stroke="none" 
	d="
M115.047089,98.041481 
	C112.824013,107.311295 107.345428,113.252022 97.175644,114.778290 
	C96.088226,114.674873 95.561897,114.762436 94.570480,114.928940 
	C85.730553,114.972145 77.355713,114.936432 68.822418,114.736595 
	C68.422981,114.386513 68.180038,114.203125 67.916824,114.000076 
	C67.898491,113.977821 67.943886,113.943054 67.943893,113.943054 
	C81.019157,89.847847 94.094788,65.752831 107.169250,41.657177 
	C108.882362,38.499989 110.589455,35.339535 112.822723,32.212341 
	C113.851837,32.487816 114.357582,32.731544 114.912231,33.443260 
	C115.012131,53.910404 115.063118,73.909561 114.915878,94.171791 
	C114.827469,95.637070 114.937286,96.839279 115.047089,98.041481 
z"/>
<path fill="#E9038C" opacity="1.000000" stroke="none" 
	d="
M4.085876,23.229923 
	C4.443923,24.430447 4.955796,25.880381 4.959061,27.331461 
	C5.008468,49.284878 4.996762,71.238449 4.970914,93.191948 
	C4.969760,94.172379 4.697943,95.152489 4.354243,96.473061 
	C4.156289,96.813370 3.976096,96.437416 3.993119,95.769913 
	C3.956851,71.396187 3.903559,47.689972 3.850266,23.983759 
	C3.901222,23.815796 3.952177,23.647831 4.085876,23.229923 
z"/>
<path fill="#E9038C" opacity="1.000000" stroke="none" 
	d="
M95.860519,4.760406 
	C73.796059,5.025172 51.760670,5.023402 29.725367,4.979487 
	C27.754351,4.975559 25.783878,4.698384 23.462355,4.354242 
	C23.111555,4.160372 23.544622,3.980538 24.233200,3.979245 
	C48.283852,3.932285 71.645927,3.886616 95.008003,3.840947 
	C95.301880,4.054804 95.595749,4.268661 95.860519,4.760406 
z"/>
<path fill="#F9D5E5" opacity="1.000000" stroke="none" 
	d="
M3.477630,24.205864 
	C3.903559,47.689972 3.956851,71.396187 3.939239,95.568542 
	C3.578027,95.191719 3.034678,94.348877 3.034301,93.505783 
	C3.024009,70.479866 3.069134,47.453911 3.477630,24.205864 
z"/>
<path fill="#FCE9F1" opacity="1.000000" stroke="none" 
	d="
M94.784851,3.469731 
	C71.645927,3.886616 48.283852,3.932285 24.456982,3.909296 
	C24.850603,3.560544 25.708885,3.036430 26.567451,3.035970 
	C49.232185,3.023831 71.896942,3.065795 94.784851,3.469731 
z"/>
<path fill="#AB83B2" opacity="1.000000" stroke="none" 
	d="
M115.114105,93.908714 
	C115.063118,73.909561 115.012131,53.910404 114.951614,33.084435 
	C114.675537,31.150274 114.408989,30.042929 114.142441,28.935581 
	C114.459953,28.408514 114.777473,27.881445 115.094986,27.354376 
	C115.389992,27.384336 115.684990,27.414295 115.979996,27.444256 
	C115.979996,49.310223 115.979996,71.176193 115.728943,93.496811 
	C115.477898,93.951454 115.114113,93.908714 115.114105,93.908714 
z"/>
<path fill="#E0D4E2" opacity="1.000000" stroke="none" 
	d="
M68.980865,114.900711 
	C77.355713,114.936432 85.730553,114.972145 94.819519,114.994156 
	C95.697777,115.030418 95.861916,115.080391 96.026062,115.130371 
	C92.376534,115.419243 88.731224,115.858330 85.076469,115.960777 
	C79.956062,116.104294 74.826385,116.073341 69.706436,115.921959 
	C68.857185,115.896858 68.037323,114.877975 67.573883,114.130692 
	C67.943886,113.943054 67.898491,113.977821 67.982498,114.257317 
	C68.371284,114.658112 68.676079,114.779411 68.980865,114.900711 
z"/>
<path fill="#7D2C88" opacity="1.000000" stroke="none" 
	d="
M114.915886,94.171791 
	C115.114113,93.908714 115.477898,93.951454 115.660812,93.958954 
	C115.779213,95.181168 115.714699,96.395882 115.348640,97.826042 
	C114.937286,96.839279 114.827469,95.637070 114.915886,94.171791 
z"/>
<path fill="#7D2C88" opacity="1.000000" stroke="none" 
	d="
M114.034332,29.239584 
	C114.408989,30.042929 114.675537,31.150274 114.902710,32.616447 
	C114.357582,32.731544 113.851837,32.487816 113.141869,32.047108 
	C113.267166,31.081284 113.596687,30.312435 114.034332,29.239584 
z"/>
<path fill="#791F84" opacity="1.000000" stroke="none" 
	d="
M96.260109,115.059731 
	C95.861916,115.080391 95.697777,115.030418 95.284599,114.915222 
	C95.561897,114.762436 96.088226,114.674873 96.787964,114.716118 
	C96.961372,114.844925 96.494156,114.989090 96.260109,115.059731 
z"/>
<path fill="#791F84" opacity="1.000000" stroke="none" 
	d="
M68.822418,114.736588 
	C68.676079,114.779411 68.371284,114.658112 68.000824,114.279572 
	C68.180038,114.203125 68.422981,114.386513 68.822418,114.736588 
z"/>
</svg>